<svg width="118" height="42" viewBox="0 0 118 42" fill="none" xmlns="http://www.w3.org/2000/svg">
<g clip-path="url(#clip0_6699_1648)">
<g clip-path="url(#clip1_6699_1648)">
<path d="M4.24465 25.9878V28.7944C5.65159 29.056 7.09331 29.1308 8.46231 29.1308C10.9316 29.1308 12.4523 28.4206 12.4523 26.9597C12.4523 25.6857 11.5418 25.125 9.10729 24.5643L6.22069 23.8915C2.38243 22.9943 0.444336 21.4213 0.444336 18.4278C0.444336 14.2351 4.24465 12.7368 8.50025 12.7368C11.5386 12.7368 14.2007 13.447 15.6424 14.1603V19.2502H12.1077V16.4062C10.9284 16.1446 9.67639 15.9577 8.45915 15.9577C6.36929 15.9577 4.43119 16.4436 4.43119 18.0167C4.43119 18.9885 5.07617 19.5523 7.35573 20.0756L10.3182 20.7111C13.8909 21.4587 16.3981 22.6579 16.3981 26.3273C16.3981 30.9312 12.5978 32.3548 8.45599 32.3548C5.83497 32.3548 2.79345 32.0557 0.665652 31.2677V25.9878H4.23833H4.24465Z" fill="black"/>
<path d="M28.3115 39.7652H18.4692V36.3575H20.7867V16.5931H18.4692V13.1854H24.4732L25.0423 15.5434C26.2596 13.8582 28.1945 12.7368 30.8187 12.7368C35.871 12.7368 39.4058 16.6305 39.4058 22.5084C39.4058 28.3863 35.9469 32.3548 31.1222 32.3548C28.7288 32.3548 26.639 31.3829 25.232 29.6977V36.3606H28.3083V39.7684L28.3115 39.7652ZM29.8702 16.6305C26.8698 16.6305 24.9317 18.8764 24.9317 22.5458C24.9317 26.2152 26.8698 28.648 29.9081 28.648C32.9465 28.648 34.7708 26.2526 34.7708 22.5832C34.7708 18.9138 32.9086 16.6305 29.8702 16.6305Z" fill="black"/>
<path d="M62.9283 31.903H53.124V28.4952H55.4415V16.6273H53.124V13.1821H59.128L59.8489 16.2877C60.6456 14.3035 62.2423 12.7305 64.7495 12.7305C65.5083 12.7305 66.422 12.88 67.2187 13.179L66.5358 16.998C65.5873 16.7737 64.9012 16.7363 64.2183 16.7363C61.5214 16.7363 59.8489 18.9448 59.8489 24.4489V28.4921H62.9252V31.8999L62.9283 31.903Z" fill="black"/>
<path d="M76.4255 12.7368C82.0501 12.7368 85.3161 16.3314 85.3161 21.7203V23.1812H71.7905C72.0181 26.4768 73.8803 28.7974 77.5289 28.7974C80.112 28.7974 81.8224 28.0125 82.9638 27.0375L85.0536 29.5824C83.3432 31.2676 80.5704 32.3516 77.1495 32.3516C71.1834 32.3516 67.2693 28.9812 67.2693 22.4679C67.2693 16.6273 70.6902 12.7336 76.4255 12.7336V12.7368ZM71.9422 20.113H80.9087C80.4534 17.4559 78.8947 15.995 76.4255 15.995C73.9562 15.995 72.4734 17.4933 71.9422 20.113Z" fill="black"/>
<path d="M41.7104 13.1853H48.4353V28.4984H50.7528V31.903H41.7104V28.4984H44.0279V16.5931H41.7104V13.1853Z" fill="black"/>
<path d="M48.4449 5.44458H44.0186V9.80551H48.4449V5.44458Z" fill="black"/>
<path d="M102.92 9.71844C102.781 11.9955 102.535 14.2818 102.184 16.5402L107.271 17.3594V9.01758L102.92 9.71844Z" fill="#F6861F"/>
<path d="M101.387 9.96436L93.0557 11.3069V15.0666L100.688 16.2971C101.01 14.2038 101.248 12.0794 101.387 9.96436Z" fill="#E64C38"/>
<path d="M101.959 17.9231C101.624 19.8481 101.213 21.7514 100.729 23.6048L107.271 22.5457V18.7797L101.959 17.9231Z" fill="#B01F8C"/>
<path d="M100.464 17.6803L93.0591 16.4873V24.8447L99.0915 23.8697C99.6385 21.8606 100.097 19.786 100.464 17.6803Z" fill="#8D2061"/>
<path d="M102.996 8.28551L107.271 7.5971V2.05249H102.968C103.034 3.1178 103.123 5.30761 102.996 8.28551Z" fill="#24479E"/>
<path d="M93.0557 26.2649V31.9029H96.309C97.2006 29.819 97.9942 27.623 98.6676 25.3584L93.0557 26.2649Z" fill="#592D82"/>
<path d="M100.321 25.0906C99.6509 27.4423 98.8574 29.7287 97.9531 31.903H107.271V23.9661L100.321 25.0906Z" fill="#6460AA"/>
<path d="M101.469 8.53159C101.614 5.38549 101.513 3.07108 101.447 2.05249H93.0557V9.88659L101.469 8.53159Z" fill="#628FCA"/>
<path d="M114.055 24.5671C116.098 24.5671 117.803 26.1392 117.803 28.2041C117.803 30.269 116.09 31.8835 114.055 31.8835C112.019 31.8835 110.28 30.3115 110.28 28.2041C110.28 26.0967 112.002 24.5671 114.055 24.5671ZM114.055 31.3397C115.785 31.3397 117.125 29.9886 117.125 28.2041C117.125 26.4196 115.785 25.1025 114.055 25.1025C112.324 25.1025 110.958 26.4536 110.958 28.2041C110.958 29.9546 112.298 31.3397 114.055 31.3397ZM112.593 26.0797H114.289C115.333 26.0797 115.82 26.4791 115.82 27.3034C115.82 28.0766 115.316 28.3995 114.672 28.4675L115.924 30.354H115.194L114.002 28.5185H113.281V30.354H112.602V26.0797H112.593ZM113.272 27.9747H113.985C114.585 27.9747 115.133 27.9492 115.133 27.2694C115.133 26.7 114.629 26.615 114.176 26.615H113.272V27.9747Z" fill="black"/>
</g>
</g>
<defs>
<clipPath id="clip0_6699_1648">
<rect width="117.333" height="40.8889" fill="white" transform="translate(0.444336 0.666748)"/>
</clipPath>
<clipPath id="clip1_6699_1648">
<rect width="117.358" height="39.5085" fill="white" transform="translate(0.444336 1.15454)"/>
</clipPath>
</defs>
</svg>
